<?xml version="1.0" encoding="utf-8"?>
<!-- Generator: Adobe Illustrator 19.0.0, SVG Export Plug-In . SVG Version: 6.00 Build 0)  -->
<svg version="1.1" id="layer" xmlns="http://www.w3.org/2000/svg" xmlns:xlink="http://www.w3.org/1999/xlink" x="0px" y="0px"
	 viewBox="-153 -46 652 652" style="enable-background:new -153 -46 652 652;" xml:space="preserve">
<style type="text/css">
	.st0{fill:#006599;}
	.st1{fill:#0F1216;}
	.st2{fill:#F6BC25;}
	.st3{fill:#C51E46;}
	.st4{fill:#317931;}
</style>
<path class="st0" d="M-38.1,271.6h9.8V311h-9.8V271.6z"/>
<path class="st1" d="M-126.6,291.3H-48v9.8h-78.7V291.3z"/>
<path class="st2" d="M-18.4,202.8h9.8v123h-9.8V202.8z"/>
<path class="st3" d="M1.2,232.3h9.8v123H1.2C1.2,355.2,1.2,232.3,1.2,232.3z"/>
<path class="st4" d="M20.9,212.6h9.8v78.7h-9.8V212.6z"/>
<path class="st1" d="M109.4,306c4.9,0,9.8-4.9,9.8-9.8v-39.3h-9.8v34.4c0,0-3,5.9-4.9,4.9c-2.5,1-18.7,1-19.7,0v-39.3H75v39.3
	c-1,1-17.2,1-19.7,0c-2,1-4.9-4.9-4.9-4.9v-34.4h-9.8v39.3c0,4.9,4.9,9.8,9.8,9.8C50.4,306,109.4,306,109.4,306z M257,256.9v9.8
	h29.5V306h9.8v-39.3h29.5v-9.8C325.8,256.9,257,256.9,257,256.9z M340.6,286.4v4.9c0,0,3.4,5.9,4.9,4.9c2.5,1,54.1,1,54.1,0v9.8h-59
	c-4.4,0-9.8-4.9-9.8-9.8v-29.5c0-4.9,5.4-9.8,9.8-9.8h59v9.8c0-1-51.6-1-54.1,0c-1.5-1-4.9,4.9-4.9,4.9v4.9h49.2v9.8L340.6,286.4
	L340.6,286.4z M222.5,296.2c2.5,1,54.1,1,54.1,0v9.8h-59c-4.9,0-9.8-4.9-9.8-9.8v-39.3h9.8v34.4
	C217.6,291.3,221.1,297.2,222.5,296.2z M463.5,271.6c0,3.4-2,4.9-5.4,4.9h-38.9v-9.8h38.9C461.5,266.7,463.5,268.2,463.5,271.6
	L463.5,271.6L463.5,271.6z M473.4,266.7c0-4.9-5.4-9.8-9.8-9.8h-54.1v49.2h9.8v-19.7h39.3l4.9,4.9V306h9.8v-14.8
	c0-4.9-3-7.4-4.9-9.8c2,2.5,4.9-0.5,4.9-4.9L473.4,266.7L473.4,266.7z M188.1,281.5h-49.2v-11.3c0-2.5,2-3.9,5.4-3.9h38.4
	c3.9,0,5.4,1.5,5.4,3.9V281.5z M163.5,256.9h-24.6c-4.9,0-9.8,4.9-9.8,9.8V306h9.8v-14.8h49.2V306h9.8v-39.3c0-4.9-4.9-9.8-9.8-9.8
	C188.1,256.9,163.5,256.9,163.5,256.9z"/>
</svg>
